User Type,Username,Date,Text
,TorrentCRO,2012-03-27T10:47Z,"

Format                           : Windows Media
File size                        : 1.22 GiB
Duration                         : 1h 49mn
Overall bit rate mode            : Variable
Overall bit rate                 : 1 603 Kbps
Maximum Overall bit rate         : 4 597 Kbps
Encoded date                     : UTC 2012-03-23 20:58:52.946

Video
ID                               : 2
Format                           : VC-1
Format profile                   : MP@ML
Codec ID                         : WMV3
Codec ID/Info                    : Windows Media Video 9
Codec ID/Hint                    : WMV3
Description of the codec         : Windows Media Video 9 - Professional
Duration                         : 1h 49mn
Bit rate mode                    : Variable
Bit rate                         : 1 500 Kbps
Width                            : 720 pixels
Height                           : 576 pixels
Display aspect ratio             : 5:4
Frame rate                       : 25.000 fps
Standard                         : PAL
Bit depth                        : 8 bits
Scan type                        : Progressive
Compression mode                 : Lossy
Bits/(Pixel*Frame)               : 0.145
Stream size                      : 1.15 GiB (94%)
NumberOfFrames                   : 164107

Audio
ID                               : 1
Format                           : WMA
Format version                   : Version 2
Codec ID                         : 161
Codec ID/Info                    : Windows Media Audio
Description of the codec         : Windows Media Audio 9.2 -  96 kbps, 48 kHz, stereo 2-pass VBR
Duration                         : 1h 49mn
Bit rate mode                    : Variable
Bit rate                         : 96.0 Kbps
Channel(s)                       : 2 channels
Sampling rate                    : 48.0 KHz
Bit depth                        : 16 bits
Stream size                      : 75.1 MiB (6%)
NumberOfFrames                   : 19228"
,TorrentCRO,2012-03-27T10:48Z,http://www.imagebam.com/image/c04713181762267
,ndonic,2012-03-31T21:13Z,hvala prijatelju
,smisleno,2012-04-01T01:33Z,"Hvala Jugo braco :) Pozdrav iz Skopje   ;) budite dobri, nemoj da jedete kikirike sa ljushpom :)))"
,KengurBGD,2012-04-01T03:51Z,"Konacno prva puna verzija traje 1:49:24. Film jedino treba da bude crop-ovan posto ima crni prostor gore i dole oni koji imaju problem da ga gledaju preko celog ekrana neka gledaju sa VLC player i opcijom 16:9 za siroki ekran.
PS. fim nije los ali mi je nekako u americkom stilu pun stereotipa..."
,smisleno,2012-04-01T15:11Z,Ljimunnn OOooo brateeee eee :))))
,nnniiikk,2012-04-01T22:59Z,super film..
,GdinNe,2012-04-18T23:32Z,Ako bi mi neko rekao neki program za DVD ripovanje ja Ä&#x2021;u vam obezbediti bolji snimak q:
,DZIGS,2012-04-19T14:52Z,Hvala Braco piratu stari. Film je odlicnog kvaliteta.
,hybridce,2012-05-29T14:42Z,"Pristojan snimak i zvuk. Nista posebno, ali hvala. ;)"
